<svg width="220" height="222" viewBox="0 0 220 222" fill="none" xmlns="http://www.w3.org/2000/svg" xmlns:xlink="http://www.w3.org/1999/xlink">
<path d="M177.61,51.187C184.313,51.187 189.747,42.554 189.747,31.904C189.747,21.254 184.313,12.62 177.61,12.62C170.907,12.62 165.473,21.254 165.473,31.904C165.473,42.554 170.907,51.187 177.61,51.187Z" transform="rotate(41.69 177.61 31.904)" fill="#6AC04E"/>
<path d="M187.21,52.587C197.045,52.587 205.019,48.169 205.019,42.719C205.019,37.268 197.045,32.85 187.21,32.85C177.374,32.85 169.401,37.268 169.401,42.719C169.401,48.169 177.374,52.587 187.21,52.587Z" transform="rotate(-48.31 187.21 42.719)" fill="#7DCF43"/>
<path d="M163.671,51.566C169.121,51.566 173.54,43.592 173.54,33.757C173.54,23.921 169.121,15.948 163.671,15.948C158.221,15.948 153.802,23.921 153.802,33.757C153.802,43.592 158.221,51.566 163.671,51.566Z" transform="rotate(-48.31 163.671 33.757)" fill="#8DC04E"/>
<path d="M114.653,97.334L106.211,97.334C112.833,123.276 124.998,152.689 138.911,152.689C139.721,152.689 140.527,152.59 141.323,152.397C129.964,149.275 120.143,121.765 114.65,97.334L114.653,97.334Z" transform="rotate(41.69 123.767 125.012)" fill="#FF9C20"/>
<path d="M133.167,68.068C133.167,47.893 147.015,31.391 164.504,30.147C163.706,30.098 162.903,30.068 162.093,30.068C141.105,30.068 124.093,47.081 124.093,68.068C124.093,74.529 125.706,85.344 128.551,97.22L137.092,97.22C134.588,85.344 133.167,74.529 133.167,68.068Z" transform="rotate(41.69 144.299 63.644)" fill="#FF9C20"/>
<path d="M162.238,78.75C162.238,77.81 163.001,77.048 163.94,77.048L188.121,77.048C188.183,75.986 188.214,74.999 188.214,74.099C188.214,53.924 172.49,37.421 152.626,36.178C135.135,37.424 121.289,53.924 121.289,74.099C121.289,80.56 122.709,91.375 125.214,103.251L145.45,103.251C146.389,103.251 147.152,104.013 147.152,104.953C147.152,105.892 146.389,106.654 145.45,106.654L125.956,106.654C131.446,131.085 141.269,158.595 152.628,161.717C161.753,159.509 170.002,145.099 176.256,128.206L150.441,128.206C149.502,128.206 148.74,127.444 148.74,126.505C148.74,125.566 149.502,124.803 150.441,124.803L177.479,124.803C182.96,109.068 186.703,91.794 187.847,80.451L163.94,80.451C163.001,80.451 162.238,79.689 162.238,78.75Z" transform="rotate(41.69 154.752 98.947)" fill="#FFA93F"/>
<path d="M169.79,85.639C168.851,85.639 168.088,86.402 168.088,87.341C168.088,88.28 168.851,89.042 169.79,89.042L193.697,89.042C193.817,87.838 193.91,86.701 193.972,85.639L169.79,85.639Z" transform="rotate(41.69 181.03 87.341)" fill="#FF9000"/>
<path d="M144.809,94.731L116.031,94.731C116.301,95.856 116.582,96.992 116.872,98.134L144.809,98.134C145.748,98.134 146.51,97.371 146.51,96.432C146.51,95.493 145.748,94.731 144.809,94.731Z" transform="rotate(41.69 131.271 96.432)" fill="#FF9000"/>
<path d="M138.387,127.675C138.387,128.614 139.149,129.376 140.088,129.376L165.903,129.376C166.318,128.251 166.727,127.117 167.126,125.973L140.088,125.973C139.149,125.973 138.387,126.736 138.387,127.675Z" transform="rotate(41.69 152.756 127.675)" fill="#FF9000"/>
<path d="M47.543,96.958C54.952,96.958 60.958,87.416 60.958,75.644C60.958,63.873 54.952,54.331 47.543,54.331C40.135,54.331 34.129,63.873 34.129,75.644C34.129,87.416 40.135,96.958 47.543,96.958Z" transform="rotate(-73.64 47.543 75.645)" fill="#6AC04E"/>
<path d="M63.319,83.98C74.19,83.98 83.002,79.097 83.002,73.073C83.002,67.049 74.19,62.165 63.319,62.165C52.448,62.165 43.635,67.049 43.635,73.073C43.635,79.097 52.448,83.98 63.319,83.98Z" transform="rotate(-163.64 63.319 73.073)" fill="#7DCF43"/>
<path d="M41.033,109.441C47.057,109.441 51.941,100.628 51.941,89.757C51.941,78.886 47.057,70.074 41.033,70.074C35.009,70.074 30.126,78.886 30.126,89.757C30.126,100.628 35.009,109.441 41.033,109.441Z" transform="rotate(-163.64 41.033 89.757)" fill="#8DC04E"/>
<path d="M92.592,150.378L83.262,150.378C90.581,179.051 104.026,211.56 119.404,211.56C120.299,211.56 121.189,211.45 122.07,211.237C109.515,207.786 98.66,177.381 92.589,150.378L92.592,150.378Z" transform="rotate(-73.64 102.666 180.969)" fill="#FF9C20"/>
<path d="M45.19,130.406C45.19,108.108 60.496,89.868 79.826,88.494C78.943,88.439 78.056,88.406 77.161,88.406C53.964,88.406 35.161,107.21 35.161,130.406C35.161,137.548 36.943,149.501 40.088,162.627L49.528,162.627C46.76,149.501 45.19,137.548 45.19,130.406Z" transform="rotate(-73.64 57.493 125.517)" fill="#FF9C20"/>
<path d="M104.917,114.301C104.917,113.263 105.759,112.42 106.797,112.42L133.524,112.42C133.592,111.247 133.627,110.156 133.627,109.16C133.627,86.861 116.248,68.622 94.293,67.248C74.96,68.625 59.657,86.861 59.657,109.16C59.657,116.302 61.227,128.255 63.995,141.381L86.361,141.381C87.4,141.381 88.242,142.224 88.242,143.262C88.242,144.3 87.4,145.143 86.361,145.143L64.815,145.143C70.883,172.145 81.74,202.551 94.295,206.001C104.38,203.561 113.497,187.634 120.41,168.963L91.878,168.963C90.84,168.963 89.997,168.121 89.997,167.083C89.997,166.045 90.84,165.202 91.878,165.202L121.762,165.202C127.82,147.81 131.957,128.719 133.221,116.181L106.797,116.181C105.759,116.181 104.917,115.339 104.917,114.301Z" transform="rotate(-73.64 96.642 136.625)" fill="#FFA93F"/>
<path d="M88.914,103.342C87.876,103.342 87.033,104.184 87.033,105.222C87.033,106.26 87.876,107.103 88.914,107.103L115.338,107.103C115.471,105.772 115.573,104.515 115.641,103.342L88.914,103.342Z" transform="rotate(-73.64 101.337 105.222)" fill="#FF9000"/>
<path d="M95.374,155.186L63.567,155.186C63.865,156.43 64.176,157.686 64.497,158.947L95.374,158.947C96.412,158.947 97.255,158.105 97.255,157.067C97.255,156.028 96.412,155.186 95.374,155.186Z" transform="rotate(-73.64 80.411 157.067)" fill="#FF9000"/>
<path d="M106.408,155.471C106.408,156.509 107.251,157.351 108.289,157.351L136.821,157.351C137.28,156.108 137.731,154.854 138.173,153.59L108.289,153.59C107.251,153.59 106.408,154.433 106.408,155.471Z" transform="rotate(-73.64 122.29 155.471)" fill="#FF9000"/>
</svg>
