<svg width="74" height="74" viewBox="0 0 74 74" fill="none" xmlns="http://www.w3.org/2000/svg" xmlns:xlink="http://www.w3.org/1999/xlink">
<path d="M37,74C57.435,74 74,57.435 74,37C74,16.565 57.435,0 37,0C16.565,0 0,16.565 0,37C0,57.435 16.565,74 37,74Z" fill="#FFD84E"/>
<path d="M43.078,17.836C43.078,15.052 40.821,12.794 38.037,12.794C35.252,12.794 32.995,15.052 32.995,17.836L32.995,57.547C32.995,60.332 35.252,62.589 38.037,62.589C40.821,62.589 43.078,60.332 43.078,57.547L43.078,17.836Z" fill="#FFFFFF"/>
<path d="M43.079,17.836C43.079,15.052 40.822,12.794 38.037,12.794C35.253,12.794 32.996,15.052 32.996,17.836L32.996,57.547C32.996,60.332 35.253,62.589 38.037,62.589C40.822,62.589 43.079,60.332 43.079,57.547L43.079,17.836Z" transform="rotate(180 38.037 37.692)" fill="#FFFFFF"/>
</svg>
