<svg width="474" height="474" viewBox="0 0 474 474" fill="none" xmlns="http://www.w3.org/2000/svg" xmlns:xlink="http://www.w3.org/1999/xlink">
<circle cx="237" cy="237" r="237" fill="#F6F6F6"/>
<path d="M355,0C319.048,0 283.566,8.18 251.241,23.92C218.917,39.66 190.598,62.548 168.427,90.851C146.256,119.154 130.815,152.13 123.273,187.283C115.731,222.436 116.286,258.844 124.895,293.75C133.504,328.658 149.942,361.148 172.964,388.764C195.987,416.378 224.99,438.392 257.779,453.142C290.567,467.89 326.282,474.984 362.218,473.89C397.238,472.824 431.576,464.004 462.76,448.084C468.732,445.93 473,440.214 473,433.5C473,424.94 466.06,418 457.5,418C454.424,418 451.556,418.896 449.146,420.442C421.91,434.42 391.896,442.162 361.28,443.094C330.014,444.046 298.944,437.874 270.418,425.042C241.892,412.212 216.659,393.058 196.629,369.034C176.6,345.01 162.299,316.742 154.809,286.374C147.319,256.004 146.836,224.33 153.398,193.746C159.959,163.163 173.393,134.474 192.681,109.85C211.97,85.227 236.608,65.314 264.73,51.62C292.289,38.201 322.486,31.098 353.12,30.819C353.896,30.938 354.692,31 355.5,31C364.06,31 371,24.06 371,15.5C371,6.94 364.06,0 355.5,0C355.332,0 355.166,0.003 355,0.008L355,0Z" clip-rule="evenodd" fill-rule="evenodd" transform="rotate(360 295.5 237)" fill="url(#pf_0_26_653)"/>
<circle cx="133" cy="433" r="11" fill="#FFFFFF"/>
<defs>
<linearGradient id="pf_0_26_653" x1="295.5" y1="474" x2="295.5" y2="0" gradientUnits="userSpaceOnUse">
<stop stop-color="#DECDFF"/>
<stop offset="1" stop-color="#BCECFF"/>
</linearGradient>
</defs>
</svg>
