<svg width="186" height="244" viewBox="0 0 186 244" fill="none" xmlns="http://www.w3.org/2000/svg" xmlns:xlink="http://www.w3.org/1999/xlink">
<path d="M38.756,181.143C38.756,170.339 29.998,161.581 19.194,161.581C8.391,161.581 -0.367,170.339 -0.367,181.143C-0.367,191.946 8.391,200.704 19.194,200.704C29.998,200.704 38.756,191.946 38.756,181.143Z" fill="#FFFFFF"/>
<path d="M100.955,42.653C100.955,42.653 100.955,42.653 100.955,42.653L100.955,24.884C100.955,24.433 100.967,23.985 100.992,23.54C101.276,18.502 103.146,13.864 106.108,10.125C103.145,13.863 101.276,18.495 100.992,23.54C100.967,23.985 100.955,24.433 100.955,24.884L100.955,42.653ZM64.391,51.813C42.413,62.443 27.827,81.141 27.827,102.429C27.827,117.999 35.638,132.187 48.435,142.842C50.791,144.802 53.31,146.64 55.991,148.357C69.672,157.091 87.294,162.363 106.541,162.363C129.545,162.363 150.245,154.847 164.636,142.862C177.444,132.208 185.254,118.019 185.254,102.439C185.254,98.021 184.604,93.714 183.416,89.57L183.416,89.56C178.863,73.732 166.099,60.242 148.691,51.817L148.691,24.883C148.691,11.75 137.955,1.015 124.823,1.015C121.39,1.015 118.119,1.756 115.164,3.077C119.622,8.835 122.284,16.047 122.284,23.867L122.284,43.704C118.969,43.192 115.579,42.838 112.127,42.653L112.127,23.868C112.127,18.302 110.197,13.173 106.967,9.1C106.816,9.272 106.666,9.445 106.519,9.621C106.666,9.445 106.815,9.272 106.967,9.1C102.58,3.565 95.815,0 88.259,0C75.126,0 64.391,10.735 64.391,23.868L64.391,51.813ZM103.753,103.397C103.072,102.716 101.968,102.716 101.287,103.397C100.606,104.078 100.606,105.182 101.287,105.863L105.285,109.862L101.287,113.86C100.606,114.541 100.606,115.646 101.287,116.327C101.968,117.008 103.072,117.008 103.753,116.327L107.752,112.328L111.75,116.326C112.431,117.007 113.535,117.007 114.216,116.326C114.897,115.645 114.897,114.541 114.216,113.86L110.218,109.862L114.216,105.863C114.897,105.182 114.897,104.078 114.216,103.397C113.535,102.716 112.431,102.716 111.75,103.397L107.752,107.396L103.753,103.397ZM92.571,106.549C92.571,110.402 89.448,113.525 85.596,113.525C81.744,113.525 78.621,110.402 78.621,106.549C78.621,102.697 81.744,99.574 85.596,99.574C89.448,99.574 92.571,102.697 92.571,106.549ZM128.253,114.541C132.106,114.541 135.229,111.418 135.229,107.566C135.229,103.713 132.106,100.59 128.253,100.59C124.401,100.59 121.278,103.713 121.278,107.566C121.278,111.418 124.401,114.541 128.253,114.541Z" clip-rule="evenodd" fill-rule="evenodd" fill="#FFFFFF"/>
<path d="M169.837,147.646C154.135,161.043 131.577,169.463 106.541,169.463C86.746,169.463 67.428,164.09 52.163,154.339C48.943,152.278 45.947,150.064 43.174,147.707C33.536,157.65 27.817,169.94 27.817,183.255C27.817,201.7 38.766,218.184 55.982,229.173C69.663,237.908 87.284,243.179 106.531,243.179C150.001,243.179 185.244,216.345 185.244,183.255C185.244,178.837 184.594,174.531 183.406,170.387C180.999,162.018 176.296,154.309 169.827,147.646L169.837,147.646Z" fill="#FFFFFF"/>
</svg>
