<svg width="98" height="60" viewBox="0 0 98 60" fill="none" xmlns="http://www.w3.org/2000/svg" xmlns:xlink="http://www.w3.org/1999/xlink">
<path d="M84.024,39.313L3.308,39.313C1.481,39.313 0,40.856 0,42.76L0,56.552C0,58.456 1.481,60 3.308,60L84.024,60C85.851,60 87.332,58.456 87.332,56.552L87.332,42.76C87.332,40.856 85.851,39.313 84.024,39.313Z" fill="#E5E9ED"/>
<path d="M78.729,39.313L84.022,39.313C85.848,39.313 87.33,40.857 87.33,42.76L87.33,56.552C87.33,58.455 85.848,60 84.022,60L78.729,60L78.729,39.313Z" fill="#ED7571"/>
<path d="M3.308,39.313L26.464,39.313L26.464,60L3.308,60C1.482,60 0,58.455 0,56.552L0,42.76C0,40.857 1.482,39.313 3.308,39.313Z" fill="#E8A339"/>
<path d="M31.097,39.313L26.465,39.313L26.465,60L31.097,60L31.097,39.313Z" transform="rotate(360 28.781 49.656)" fill="#BBBECA"/>
<path d="M85.348,35.175C80.849,29.086 80.657,19.246 86.499,13.888C87.101,13.309 87.921,12.764 88.59,12.268C90.091,11.24 91.309,9.992 92.361,8.413C93.79,6.103 94.954,2.896 94.61,0C97.799,1.993 98.494,6.965 97.7,10.551C96.965,14.054 94.67,17.053 91.891,19.087C87.385,22.77 86.876,29.266 85.348,35.168L85.348,35.175Z" fill="#9496A2"/>
</svg>
