<svg width="32" height="32" viewBox="0 0 32 32" fill="none" xmlns="http://www.w3.org/2000/svg" xmlns:xlink="http://www.w3.org/1999/xlink">
<path d="M3.414,0.586L2,-0.828L-0.828,2L0.586,3.414L3.414,0.586ZM26.586,29.414L28,30.828L30.828,28L29.414,26.586L26.586,29.414ZM0.586,3.414L26.586,29.414L29.414,26.586L3.414,0.586L0.586,3.414Z" transform="rotate(180 15 15)" fill="#FF7B7B"/>
<path d="M3.414,0.586L2,-0.828L-0.828,2L0.586,3.414L3.414,0.586ZM26.586,29.414L28,30.828L30.828,28L29.414,26.586L26.586,29.414ZM0.586,3.414L26.586,29.414L29.414,26.586L3.414,0.586L0.586,3.414Z" transform="rotate(0 15 15)" fill="#FF7B7B"/>
</svg>
