<svg width="60" height="74" viewBox="0 0 60 74" fill="none" xmlns="http://www.w3.org/2000/svg" xmlns:xlink="http://www.w3.org/1999/xlink">
<path d="M43.152,74L14.894,74C13.392,74 12.118,72.949 11.926,71.537L3.65,11.298L54.396,11.298L46.12,71.537C45.928,72.944 44.654,74 43.152,74Z" fill="#ECDCC5"/>
<path d="M49.537,54.794L8.509,54.794C7.911,54.794 7.408,54.382 7.324,53.822L3.931,31.227C3.83,30.549 4.386,29.939 5.116,29.939L52.93,29.939C53.66,29.939 54.216,30.549 54.115,31.227L50.722,53.822C50.638,54.382 50.135,54.794 49.537,54.794Z" fill="#D9AB7D"/>
<path d="M56.85,7.344L1.197,7.344C0.536,7.344 0,7.849 0,8.473L0,12.992C0,13.616 0.536,14.122 1.197,14.122L56.85,14.122C57.511,14.122 58.047,13.616 58.047,12.992L58.047,8.473C58.047,7.849 57.511,7.344 56.85,7.344Z" fill="#926200"/>
<path d="M54.756,7.344L3.292,7.344L4.315,2.288C4.584,0.96 5.799,0 7.217,0L50.83,0C52.248,0 53.463,0.96 53.732,2.288L54.756,7.344Z" fill="#926200"/>
</svg>
