<svg width="98" height="60" viewBox="0 0 98 60" fill="none" xmlns="http://www.w3.org/2000/svg" xmlns:xlink="http://www.w3.org/1999/xlink">
<path d="M84.024,39.306L3.308,39.306C1.481,39.306 0,40.85 0,42.754L0,56.545C0,58.45 1.481,59.993 3.308,59.993L84.024,59.993C85.851,59.993 87.332,58.45 87.332,56.545L87.332,42.754C87.332,40.85 85.851,39.306 84.024,39.306Z" fill="#E5E9ED"/>
<path d="M78.729,39.306L84.022,39.306C85.848,39.306 87.33,40.851 87.33,42.754L87.33,56.545C87.33,58.449 85.848,59.993 84.022,59.993L78.729,59.993L78.729,39.306Z" fill="#ED7571"/>
<path d="M3.308,39.306L26.464,39.306L26.464,59.993L3.308,59.993C1.482,59.993 0,58.449 0,56.545L0,42.754C0,40.851 1.482,39.306 3.308,39.306Z" fill="#E8A339"/>
<path d="M31.097,39.306L26.465,39.306L26.465,59.993L31.097,59.993L31.097,39.306Z" transform="rotate(360 28.781 49.65)" fill="#BBBECA"/>
<path d="M85.348,35.168C80.849,29.08 80.657,19.239 86.499,13.881C87.101,13.302 87.921,12.757 88.59,12.261C90.091,11.233 91.309,9.985 92.361,8.406C93.79,6.096 94.954,2.889 94.61,-0.007C97.799,1.986 98.494,6.958 97.7,10.544C96.965,14.047 94.67,17.046 91.891,19.081C87.385,22.763 86.876,29.259 85.348,35.162L85.348,35.168Z" fill="#9496A2"/>
</svg>
