<svg width="220" height="208" viewBox="0 0 220 208" fill="none" xmlns="http://www.w3.org/2000/svg" xmlns:xlink="http://www.w3.org/1999/xlink">
<path d="M168.331,81.953C177.151,81.953 184.301,70.594 184.301,56.58C184.301,42.567 177.151,31.207 168.331,31.207C159.511,31.207 152.361,42.567 152.361,56.58C152.361,70.594 159.511,81.953 168.331,81.953Z" transform="rotate(99.297 168.331 56.58)" fill="#6AC04E"/>
<path d="M172.544,88.121C185.485,88.121 195.977,82.307 195.977,75.136C195.977,67.964 185.485,62.151 172.544,62.151C159.602,62.151 149.111,67.964 149.111,75.136C149.111,82.307 159.602,88.121 172.544,88.121Z" transform="rotate(9.297 172.544 75.136)" fill="#7DCF43"/>
<path d="M151.085,73.313C158.257,73.313 164.07,62.822 164.07,49.88C164.07,36.938 158.257,26.447 151.085,26.447C143.914,26.447 138.1,36.938 138.1,49.88C138.1,62.822 143.914,73.313 151.085,73.313Z" transform="rotate(9.297 151.085 49.88)" fill="#8DC04E"/>
<path d="M35.232,93.382L24.125,93.382C32.838,127.517 48.844,166.218 67.152,166.218C68.218,166.218 69.277,166.087 70.325,165.833C55.379,161.725 42.456,125.528 35.23,93.382L35.232,93.382Z" transform="rotate(99.297 47.225 129.8)" fill="#FF9C20"/>
<path d="M95.156,77.88C95.156,51.334 113.377,29.62 136.389,27.985C135.338,27.919 134.281,27.88 133.215,27.88C105.6,27.88 83.215,50.265 83.215,77.88C83.215,86.382 85.338,100.612 89.081,116.238L100.32,116.238C97.024,100.612 95.156,86.382 95.156,77.88Z" transform="rotate(99.297 109.802 72.059)" fill="#FF9C20"/>
<path d="M109.325,92.814C109.325,91.579 110.328,90.576 111.564,90.576L143.382,90.576C143.462,89.179 143.504,87.88 143.504,86.695C143.504,60.149 122.814,38.435 96.677,36.799C73.662,38.438 55.444,60.149 55.444,86.695C55.444,95.196 57.313,109.426 60.608,125.053L87.235,125.053C88.471,125.053 89.474,126.056 89.474,127.292C89.474,128.528 88.471,129.531 87.235,129.531L61.585,129.531C68.808,161.677 81.734,197.874 96.68,201.981C108.686,199.077 119.54,180.116 127.77,157.889L93.802,157.889C92.567,157.889 91.564,156.886 91.564,155.65C91.564,154.414 92.567,153.411 93.802,153.411L129.379,153.411C136.59,132.707 141.516,109.979 143.02,95.053L111.564,95.053C110.328,95.053 109.325,94.05 109.325,92.814Z" transform="rotate(99.297 99.474 119.391)" fill="#FFA93F"/>
<path d="M122.341,120.429C121.106,120.429 120.103,121.432 120.103,122.667C120.103,123.903 121.106,124.906 122.341,124.906L153.798,124.906C153.956,123.321 154.079,121.826 154.159,120.429L122.341,120.429Z" transform="rotate(99.297 137.131 122.667)" fill="#FF9000"/>
<path d="M91.808,99.365L53.942,99.365C54.297,100.846 54.668,102.341 55.05,103.843L91.808,103.843C93.044,103.843 94.047,102.84 94.047,101.604C94.047,100.368 93.044,99.365 91.808,99.365Z" transform="rotate(99.297 73.994 101.604)" fill="#FF9000"/>
<path d="M60.054,151.248C60.054,152.484 61.057,153.487 62.293,153.487L96.26,153.487C96.806,152.007 97.344,150.514 97.869,149.01L62.293,149.01C61.057,149.01 60.054,150.013 60.054,151.248Z" transform="rotate(99.297 78.961 151.248)" fill="#FF9000"/>
</svg>
