<svg width="238" height="110" viewBox="0 0 238 110" fill="none" xmlns="http://www.w3.org/2000/svg" xmlns:xlink="http://www.w3.org/1999/xlink">
<path d="M236.084,69.571L223.488,29.736C223.488,37.501 212.99,44.559 195.816,49.856C176.647,55.769 149.181,59.472 118.64,59.472C88.099,59.472 60.941,55.803 41.785,49.957C24.418,44.649 13.791,37.546 13.791,29.736L1.724,69.885L0,75.631C0,94.269 53.273,109.384 119,109.384C184.727,109.384 238,94.269 238,75.631L236.084,69.571Z" fill="#ADAFF4"/>
<path d="M118.64,0C60.735,0 13.791,13.308 13.791,29.736C13.791,37.546 24.417,44.649 41.785,49.957C60.928,55.803 88.266,59.472 118.64,59.472C149.014,59.472 176.66,55.769 195.816,49.856C212.991,44.559 223.489,37.49 223.489,29.736C223.489,13.308 176.544,0 118.64,0Z" fill="#C7C9FF"/>
</svg>
