<svg width="128" height="170" viewBox="0 0 128 170" fill="none" xmlns="http://www.w3.org/2000/svg" xmlns:xlink="http://www.w3.org/1999/xlink">
<path d="M85.61,51.187C92.313,51.187 97.747,42.554 97.747,31.904C97.747,21.254 92.313,12.62 85.61,12.62C78.907,12.62 73.473,21.254 73.473,31.904C73.473,42.554 78.907,51.187 85.61,51.187Z" transform="rotate(41.69 85.61 31.904)" fill="#6AC04E"/>
<path d="M95.21,52.587C105.045,52.587 113.019,48.169 113.019,42.719C113.019,37.268 105.045,32.85 95.21,32.85C85.374,32.85 77.401,37.268 77.401,42.719C77.401,48.169 85.374,52.587 95.21,52.587Z" transform="rotate(-48.31 95.21 42.719)" fill="#7DCF43"/>
<path d="M71.671,51.566C77.121,51.566 81.54,43.592 81.54,33.757C81.54,23.921 77.121,15.948 71.671,15.948C66.221,15.948 61.802,23.921 61.802,33.757C61.802,43.592 66.221,51.566 71.671,51.566Z" transform="rotate(-48.31 71.671 33.757)" fill="#8DC04E"/>
<path d="M22.653,97.334L14.211,97.334C20.833,123.276 32.998,152.689 46.911,152.689C47.721,152.689 48.527,152.59 49.323,152.397C37.964,149.275 28.143,121.765 22.65,97.334L22.653,97.334Z" transform="rotate(41.69 31.767 125.012)" fill="#FF9C20"/>
<path d="M41.167,68.068C41.167,47.893 55.015,31.391 72.504,30.147C71.706,30.098 70.903,30.068 70.093,30.068C49.105,30.068 32.093,47.081 32.093,68.068C32.093,74.529 33.706,85.344 36.551,97.22L45.092,97.22C42.588,85.344 41.167,74.529 41.167,68.068Z" transform="rotate(41.69 52.299 63.644)" fill="#FF9C20"/>
<path d="M70.238,78.75C70.238,77.81 71.001,77.048 71.94,77.048L96.121,77.048C96.183,75.986 96.214,74.999 96.214,74.099C96.214,53.924 80.49,37.421 60.626,36.178C43.135,37.424 29.289,53.924 29.289,74.099C29.289,80.56 30.709,91.375 33.214,103.251L53.45,103.251C54.389,103.251 55.152,104.013 55.152,104.953C55.152,105.892 54.389,106.654 53.45,106.654L33.956,106.654C39.446,131.085 49.269,158.595 60.628,161.717C69.753,159.509 78.002,145.099 84.256,128.206L58.441,128.206C57.502,128.206 56.74,127.444 56.74,126.505C56.74,125.566 57.502,124.803 58.441,124.803L85.479,124.803C90.96,109.068 94.703,91.794 95.847,80.451L71.94,80.451C71.001,80.451 70.238,79.689 70.238,78.75Z" transform="rotate(41.69 62.752 98.947)" fill="#FFA93F"/>
<path d="M77.79,85.639C76.851,85.639 76.088,86.402 76.088,87.341C76.088,88.28 76.851,89.042 77.79,89.042L101.697,89.042C101.817,87.838 101.91,86.701 101.972,85.639L77.79,85.639Z" transform="rotate(41.69 89.03 87.341)" fill="#FF9000"/>
<path d="M52.809,94.731L24.031,94.731C24.301,95.856 24.582,96.992 24.872,98.134L52.809,98.134C53.748,98.134 54.51,97.371 54.51,96.432C54.51,95.493 53.748,94.731 52.809,94.731Z" transform="rotate(41.69 39.271 96.432)" fill="#FF9000"/>
<path d="M46.387,127.675C46.387,128.614 47.149,129.376 48.088,129.376L73.903,129.376C74.318,128.251 74.727,127.117 75.126,125.973L48.088,125.973C47.149,125.973 46.387,126.736 46.387,127.675Z" transform="rotate(41.69 60.756 127.675)" fill="#FF9000"/>
</svg>
