<svg width="124" height="122" viewBox="0 0 124 122" fill="none" xmlns="http://www.w3.org/2000/svg" xmlns:xlink="http://www.w3.org/1999/xlink">
<path d="M87.208,36.029C87.208,36.029 87.208,36.037 87.208,36.042C87.213,36.042 87.218,36.042 87.223,36.042C87.218,36.037 87.213,36.034 87.211,36.029L87.208,36.029Z" fill="#FFFFFF"/>
<path d="M123.246,36.04C123.246,32.014 118.944,28.547 112.753,26.968C117.693,20.072 118.671,12.316 114.637,8.285C110.645,4.293 103.001,5.213 96.156,10.029C94.524,4.088 91.131,0 87.206,0C82.502,0 78.563,5.877 77.507,13.78C77.679,13.828 77.851,13.87 78.023,13.92C81.609,14.96 85.034,16.484 88.2,18.447C90.89,20.116 93.394,22.102 95.646,24.354C96.115,24.82 96.604,25.341 97.143,25.94L97.239,26.045C97.304,26.117 97.368,26.185 97.43,26.257L97.519,26.362C99.937,29.121 101.97,32.184 103.568,35.464C105.111,38.634 106.24,42.004 106.927,45.475C106.959,45.64 106.986,45.805 107.016,45.971C116.125,45.473 123.243,41.219 123.243,36.04L123.246,36.04Z" fill="#FFFFFF"/>
<path d="M39.323,26.3C34.7,30.923 28.116,39.816 21.654,50.348L27.765,56.459L42.243,70.937C42.915,71.61 42.915,72.7 42.243,73.373C41.57,74.045 40.48,74.045 39.807,73.373L25.859,59.425L19.82,53.385C5.996,76.685 -6.343,106.433 3.611,116.389C4.192,116.97 4.839,117.472 5.546,117.906C13.654,122.856 29.868,118.448 46.428,110.836L27.958,92.366C27.285,91.693 27.285,90.603 27.958,89.93C28.63,89.258 29.721,89.258 30.393,89.93L49.738,109.275C64.918,101.938 79.954,92.258 88.888,84.958L71.784,67.854C71.112,67.182 71.112,66.091 71.784,65.419C72.457,64.746 73.547,64.746 74.22,65.419L91.521,82.72C92.325,82.004 93.055,81.322 93.698,80.677C103.119,71.256 106.626,58.165 104.225,46.01C103.591,42.803 102.547,39.662 101.092,36.671C99.627,33.662 97.747,30.802 95.451,28.182C95.424,28.15 95.396,28.118 95.369,28.086C95.279,27.985 95.185,27.886 95.096,27.785C94.643,27.283 94.182,26.787 93.7,26.305C91.556,24.161 89.219,22.324 86.749,20.791C83.753,18.934 80.556,17.526 77.257,16.569C64.227,12.791 49.593,16.034 39.323,26.305L39.323,26.3ZM87.208,36.026C87.208,36.026 87.217,36.033 87.22,36.038C87.215,36.038 87.21,36.038 87.206,36.038C87.206,36.033 87.206,36.031 87.206,36.026L87.208,36.026Z" fill="#FFFFFF"/>
</svg>
