<svg width="170" height="188" viewBox="0 0 170 188" fill="none" xmlns="http://www.w3.org/2000/svg" xmlns:xlink="http://www.w3.org/1999/xlink">
<path d="M47.543,62.958C54.952,62.958 60.958,53.416 60.958,41.644C60.958,29.873 54.952,20.331 47.543,20.331C40.135,20.331 34.129,29.873 34.129,41.644C34.129,53.416 40.135,62.958 47.543,62.958Z" transform="rotate(-73.64 47.543 41.645)" fill="#6AC04E"/>
<path d="M63.319,49.98C74.19,49.98 83.002,45.097 83.002,39.073C83.002,33.049 74.19,28.165 63.319,28.165C52.448,28.165 43.635,33.049 43.635,39.073C43.635,45.097 52.448,49.98 63.319,49.98Z" transform="rotate(-163.64 63.319 39.073)" fill="#7DCF43"/>
<path d="M41.033,75.441C47.057,75.441 51.941,66.628 51.941,55.757C51.941,44.886 47.057,36.074 41.033,36.074C35.009,36.074 30.126,44.886 30.126,55.757C30.126,66.628 35.009,75.441 41.033,75.441Z" transform="rotate(-163.64 41.033 55.757)" fill="#8DC04E"/>
<path d="M92.592,116.378L83.262,116.378C90.581,145.051 104.026,177.56 119.404,177.56C120.299,177.56 121.189,177.45 122.07,177.237C109.515,173.786 98.66,143.381 92.589,116.378L92.592,116.378Z" transform="rotate(-73.64 102.666 146.969)" fill="#FF9C20"/>
<path d="M45.19,96.406C45.19,74.108 60.496,55.868 79.826,54.494C78.943,54.439 78.056,54.406 77.161,54.406C53.964,54.406 35.161,73.21 35.161,96.406C35.161,103.548 36.943,115.501 40.088,128.627L49.528,128.627C46.76,115.501 45.19,103.548 45.19,96.406Z" transform="rotate(-73.64 57.493 91.517)" fill="#FF9C20"/>
<path d="M104.917,80.301C104.917,79.263 105.759,78.42 106.797,78.42L133.524,78.42C133.592,77.247 133.627,76.156 133.627,75.16C133.627,52.861 116.248,34.622 94.293,33.248C74.96,34.625 59.657,52.861 59.657,75.16C59.657,82.302 61.227,94.255 63.995,107.381L86.361,107.381C87.4,107.381 88.242,108.224 88.242,109.262C88.242,110.3 87.4,111.143 86.361,111.143L64.815,111.143C70.883,138.145 81.74,168.551 94.295,172.001C104.38,169.561 113.497,153.634 120.41,134.963L91.878,134.963C90.84,134.963 89.997,134.121 89.997,133.083C89.997,132.045 90.84,131.202 91.878,131.202L121.762,131.202C127.82,113.81 131.957,94.719 133.221,82.181L106.797,82.181C105.759,82.181 104.917,81.339 104.917,80.301Z" transform="rotate(-73.64 96.642 102.625)" fill="#FFA93F"/>
<path d="M88.914,69.342C87.876,69.342 87.033,70.184 87.033,71.222C87.033,72.26 87.876,73.103 88.914,73.103L115.338,73.103C115.471,71.772 115.573,70.515 115.641,69.342L88.914,69.342Z" transform="rotate(-73.64 101.337 71.222)" fill="#FF9000"/>
<path d="M95.374,121.186L63.567,121.186C63.865,122.43 64.176,123.686 64.497,124.947L95.374,124.947C96.412,124.947 97.255,124.105 97.255,123.067C97.255,122.028 96.412,121.186 95.374,121.186Z" transform="rotate(-73.64 80.411 123.067)" fill="#FF9000"/>
<path d="M106.408,121.471C106.408,122.509 107.251,123.351 108.289,123.351L136.821,123.351C137.28,122.108 137.731,120.854 138.173,119.59L108.289,119.59C107.251,119.59 106.408,120.433 106.408,121.471Z" transform="rotate(-73.64 122.29 121.471)" fill="#FF9000"/>
</svg>
