<svg width="214" height="280" viewBox="0 0 214 280" fill="none" xmlns="http://www.w3.org/2000/svg" xmlns:xlink="http://www.w3.org/1999/xlink">
<path d="M44.87,207.75C44.87,195.36 34.825,185.315 22.435,185.315C10.044,185.315 0,195.36 0,207.75C0,220.141 10.044,230.185 22.435,230.185C34.825,230.185 44.87,220.141 44.87,207.75Z" fill="#FFC5D6"/>
<path d="M140.667,27.374C140.667,18.405 137.615,10.134 132.501,3.529C135.891,2.015 139.642,1.165 143.579,1.165C158.64,1.165 170.952,13.477 170.952,28.539L170.952,77.462C170.952,92.512 158.64,104.836 143.579,104.836C139.106,104.836 134.866,103.741 131.126,101.819C137.056,94.97 140.667,86.059 140.667,76.297L140.667,27.374Z" fill="#FFD9E2"/>
<path d="M122.123,94.399C126.409,89.565 129.018,83.217 129.018,76.298L129.018,27.374C129.018,20.991 126.794,15.108 123.101,10.437C125.687,7.513 128.89,5.137 132.501,3.53C137.615,10.134 140.667,18.405 140.667,27.374L140.667,76.298C140.667,86.047 137.068,94.97 131.127,101.819C127.621,100.014 124.557,97.474 122.123,94.411L122.123,94.399Z" fill="#FFC5D6"/>
<path d="M116.205,77.462C116.205,83.846 118.43,89.728 122.122,94.399C117.102,100.072 109.775,103.671 101.645,103.671C86.583,103.671 74.271,91.347 74.271,76.297L74.271,27.374C74.271,12.312 86.583,0 101.645,0C110.311,0 118.069,4.089 123.101,10.437C118.814,15.271 116.205,21.62 116.205,28.539L116.205,77.462Z" fill="#FFD9E2"/>
<path d="M129.018,76.297C129.018,83.228 126.409,89.565 122.122,94.399C118.418,89.728 116.205,83.846 116.205,77.462L116.205,28.539C116.205,21.608 118.814,15.271 123.101,10.437C126.805,15.108 129.018,20.991 129.018,27.374L129.018,76.297Z" fill="#FFD9E2"/>
<path d="M129.018,76.297C129.018,83.228 126.409,89.565 122.122,94.399C118.418,89.728 116.205,83.846 116.205,77.462L116.205,28.539C116.205,21.608 118.814,15.271 123.101,10.437C126.805,15.108 129.018,20.991 129.018,27.374L129.018,76.297Z" fill="#FFD9E2"/>
<path d="M195.205,169.334C177.197,184.698 151.326,194.355 122.612,194.355C99.909,194.355 77.754,188.193 60.246,177.01C56.554,174.645 53.117,172.106 49.937,169.404C38.883,180.807 32.325,194.902 32.325,210.173C32.325,231.327 44.882,250.232 64.626,262.836C80.316,272.854 100.527,278.899 122.6,278.899C172.456,278.899 212.876,248.124 212.876,210.173C212.876,205.106 212.131,200.167 210.768,195.415C208.007,185.816 202.614,176.975 195.194,169.334L195.205,169.334Z" fill="#FFD9E2"/>
<path d="M122.612,194.355C151.325,194.355 177.197,184.698 195.205,169.334C193.341,167.424 191.35,165.595 189.241,163.836C172.735,177.581 148.996,186.201 122.612,186.201C100.538,186.201 80.316,180.155 64.637,170.138C61.574,168.181 58.673,166.061 55.971,163.813C53.839,165.595 51.824,167.458 49.949,169.404C53.117,172.106 56.553,174.657 60.258,177.01C77.765,188.193 99.921,194.355 122.624,194.355L122.612,194.355Z" fill="#FFC5D6"/>
<path d="M210.779,102.716C201.903,71.859 165.816,48.749 122.612,48.749C72.756,48.749 32.336,79.524 32.336,117.475C32.336,135.332 41.294,151.605 55.971,163.824C58.673,166.072 61.562,168.181 64.637,170.149C80.328,180.167 100.538,186.212 122.612,186.212C148.995,186.212 172.735,177.592 189.241,163.847C203.93,151.628 212.887,135.355 212.887,117.486C212.887,112.419 212.142,107.48 210.779,102.728L210.779,102.716Z" fill="#FFD9E2"/>
<path d="M94.958,134.633C94.958,122.242 84.914,112.198 72.523,112.198C60.133,112.198 50.088,122.242 50.088,134.633C50.088,147.023 60.133,157.068 72.523,157.068C84.914,157.068 94.958,147.023 94.958,134.633Z" fill="#FFC5D6"/>
<path d="M195.135,134.633C195.135,122.242 185.091,112.198 172.7,112.198C160.31,112.198 150.265,122.242 150.265,134.633C150.265,147.023 160.31,157.068 172.7,157.068C185.091,157.068 195.135,147.023 195.135,134.633Z" fill="#FFC5D6"/>
<path d="M99.59,132.202C104.561,132.202 108.59,128.172 108.59,123.202C108.59,118.231 104.561,114.202 99.59,114.202C94.62,114.202 90.59,118.231 90.59,123.202C90.59,128.172 94.62,132.202 99.59,132.202Z" fill="#FFFFFF"/>
<path d="M148.514,133.366C153.484,133.366 157.514,129.337 157.514,124.366C157.514,119.396 153.484,115.366 148.514,115.366C143.543,115.366 139.514,119.396 139.514,124.366C139.514,129.337 143.543,133.366 148.514,133.366Z" fill="#FFFFFF"/>
</svg>
