<svg width="56" height="54" viewBox="0 0 56 54" fill="none" xmlns="http://www.w3.org/2000/svg" xmlns:xlink="http://www.w3.org/1999/xlink">
<path d="M56,16.376L56,17.579C55.957,17.792 55.887,18.002 55.875,18.215C55.759,20.271 55.278,22.24 54.449,24.12C53.009,27.386 51.126,30.393 48.99,33.242C43.212,40.948 36.041,47.189 28.307,52.833C28.021,53.042 27.834,52.968 27.587,52.788C22.789,49.298 18.213,45.544 14.028,41.331C9.578,36.849 5.622,31.988 2.652,26.376C1.566,24.322 0.662,22.208 0.315,19.892C0.206,19.158 0.105,18.423 0,17.689C0,17.215 0,16.741 0,16.267C0.08,15.675 0.155,15.084 0.24,14.492C0.919,9.684 3.082,5.713 7.072,2.891C10.881,0.198 15.074,-0.787 19.634,0.677C22.868,1.715 25.43,3.746 27.58,6.331C27.701,6.477 27.824,6.621 27.968,6.791C28.114,6.63 28.214,6.527 28.305,6.417C29.595,4.838 31.085,3.486 32.802,2.385C35.849,0.429 39.164,-0.423 42.742,0.26C49.716,1.59 54.462,7.118 55.634,13.685C55.792,14.575 55.879,15.478 55.999,16.376L56,16.376Z" fill="#FF8888"/>
</svg>
