<svg width="70" height="80" viewBox="0 0 70 80" fill="none" xmlns="http://www.w3.org/2000/svg" xmlns:xlink="http://www.w3.org/1999/xlink">
<path d="M14.294,67.687C12.241,69.705 9.832,70.577 7.003,70.213C4.942,69.948 3.217,69.021 1.894,67.487C-0.837,64.326 -0.574,59.655 2.419,56.904C5.661,53.924 10.893,53.825 14.271,57.244C14.281,57.085 14.294,56.968 14.294,56.851C14.294,46.356 14.312,35.862 14.278,25.367C14.273,23.693 15.183,22.616 16.89,21.894C17.848,21.489 18.866,21.462 19.891,21.473C20.39,21.478 20.891,21.473 21.414,21.473C21.427,21.338 21.443,21.238 21.443,21.138C21.443,16.476 21.487,11.813 21.43,7.151C21.386,3.561 23.886,0.917 26.872,0.205C31.347,-0.861 35.736,2.365 35.751,6.77C35.766,11.524 35.756,16.278 35.756,21.032C35.756,21.16 35.756,21.288 35.756,21.447L39.837,21.447C39.837,20.373 39.837,19.311 39.837,18.248C39.837,14.43 39.831,10.611 39.839,6.794C39.847,3.273 42.716,0.325 46.399,0.034C50.083,-0.258 53.443,2.167 54.01,5.623C54.192,6.742 54.153,7.899 54.158,9.038C54.173,13.271 54.168,17.505 54.156,21.738C54.156,22.052 54.238,22.182 54.571,22.264C57.35,22.94 59.858,24.121 62.027,25.937C64.724,28.196 66.322,31.016 66.834,34.401C67.169,36.613 67.165,38.811 66.302,40.926C64.819,44.559 62.144,47.131 58.482,48.799C58.287,48.887 58.091,48.972 57.897,49.062C57.879,49.07 57.875,49.107 57.838,49.188C57.996,49.238 58.15,49.294 58.306,49.335C60.62,49.929 62.807,50.791 64.736,52.173C67.528,54.173 69.382,56.759 69.845,60.108C70.38,63.977 69.538,67.561 67.183,70.792C65.062,73.7 62.154,75.588 58.711,76.782C56.012,77.717 53.21,78.099 50.349,78.1C39.948,78.105 29.545,78.105 19.144,78.102C17.628,78.102 16.288,77.651 15.206,76.601C14.597,76.009 14.289,75.301 14.292,74.464C14.3,72.243 14.296,70.023 14.296,67.688L14.294,67.687ZM23.803,28.045L23.803,34.692C23.803,36.731 23.754,38.772 23.816,40.809C23.876,42.802 23.803,65.219 23.801,71.089L23.801,71.546C23.997,71.546 24.142,71.546 24.289,71.546C31.781,71.546 39.271,71.551 46.763,71.546C48.799,71.546 50.842,71.643 52.858,71.237C55.171,70.775 57.205,69.844 58.693,68.023C60.122,66.275 60.594,64.241 60.578,62.071C60.565,60.172 60.14,58.386 58.943,56.829C57.319,54.718 55.051,53.659 52.404,53.255C51.643,53.14 50.872,53.087 50.088,53.004C50.08,52.892 50.065,52.79 50.065,52.689C50.065,50.664 50.07,48.638 50.057,46.613C50.056,46.294 50.15,46.16 50.488,46.058C53.429,45.172 55.583,43.396 56.87,40.715C57.632,39.129 57.751,37.439 57.533,35.72C57.172,32.878 55.761,30.682 53.13,29.268C51.43,28.355 49.558,28.054 47.632,28.052C39.855,28.046 32.079,28.049 24.302,28.049C24.155,28.049 24.008,28.049 23.801,28.049L23.803,28.045Z" fill="#FFFFFF"/>
<path d="M14.294,67.687C12.241,69.705 9.832,70.577 7.003,70.213C4.942,69.948 3.217,69.021 1.894,67.487C-0.837,64.326 -0.574,59.655 2.419,56.904C5.661,53.924 10.893,53.825 14.271,57.244C14.281,57.085 14.294,56.968 14.294,56.851C14.294,46.356 14.312,35.862 14.278,25.367C14.273,23.693 15.183,22.616 16.89,21.894C17.848,21.489 18.866,21.462 19.891,21.473C20.39,21.478 20.891,21.473 21.414,21.473C21.427,21.338 21.443,21.238 21.443,21.138C21.443,16.476 21.487,11.813 21.43,7.151C21.386,3.561 23.886,0.917 26.872,0.205C31.347,-0.861 35.736,2.365 35.751,6.77C35.766,11.524 35.756,16.278 35.756,21.032C35.756,21.16 35.756,21.288 35.756,21.447L39.837,21.447C39.837,20.373 39.837,19.311 39.837,18.248C39.837,14.43 39.831,10.611 39.839,6.794C39.847,3.273 42.716,0.325 46.399,0.034C50.083,-0.258 53.443,2.167 54.01,5.623C54.192,6.742 54.153,7.899 54.158,9.038C54.173,13.271 54.168,17.505 54.156,21.738C54.156,22.052 54.238,22.182 54.571,22.264C57.35,22.94 59.858,24.121 62.027,25.937C64.724,28.196 66.322,31.016 66.834,34.401C67.169,36.613 67.165,38.811 66.302,40.926C64.819,44.559 62.144,47.131 58.482,48.799C58.287,48.887 58.091,48.972 57.897,49.062C57.879,49.07 57.875,49.107 57.838,49.188C57.996,49.238 58.15,49.294 58.306,49.335C60.62,49.929 62.807,50.791 64.736,52.173C67.528,54.173 69.382,56.759 69.845,60.108C70.38,63.977 69.538,67.561 67.183,70.792C65.062,73.7 62.154,75.588 58.711,76.782C56.012,77.717 53.21,78.099 50.349,78.1C39.948,78.105 29.545,78.105 19.144,78.102C17.628,78.102 16.288,77.651 15.206,76.601C14.597,76.009 14.289,75.301 14.292,74.464C14.3,72.243 14.296,70.023 14.296,67.688L14.294,67.687ZM23.803,28.045L23.803,34.692C23.803,36.731 23.754,38.772 23.816,40.809C23.876,42.802 23.803,65.219 23.801,71.089L23.801,71.546C23.997,71.546 24.142,71.546 24.289,71.546C31.781,71.546 39.271,71.551 46.763,71.546C48.799,71.546 50.842,71.643 52.858,71.237C55.171,70.775 57.205,69.844 58.693,68.023C60.122,66.275 60.594,64.241 60.578,62.071C60.565,60.172 60.14,58.386 58.943,56.829C57.319,54.718 55.051,53.659 52.404,53.255C51.643,53.14 50.872,53.087 50.088,53.004C50.08,52.892 50.065,52.79 50.065,52.689C50.065,50.664 50.07,48.638 50.057,46.613C50.056,46.294 50.15,46.16 50.488,46.058C53.429,45.172 55.583,43.396 56.87,40.715C57.632,39.129 57.751,37.439 57.533,35.72C57.172,32.878 55.761,30.682 53.13,29.268C51.43,28.355 49.558,28.054 47.632,28.052C39.855,28.046 32.079,28.049 24.302,28.049C24.155,28.049 24.008,28.049 23.801,28.049L23.803,28.045Z" fill="url(#pf_1_82_204)"/>
<defs>
<linearGradient id="pf_1_82_204" x1="0" y1="0" x2="70" y2="78.104" gradientUnits="userSpaceOnUse">
<stop stop-color="#DECDFF"/>
<stop offset="1" stop-color="#BCECFF"/>
</linearGradient>
</defs>
</svg>
