<svg width="107" height="140" viewBox="0 0 107 140" fill="none" xmlns="http://www.w3.org/2000/svg">
<path d="M22.4349 103.875C22.4349 97.68 17.4127 92.6577 11.2175 92.6577C5.02223 92.6577 0 97.68 0 103.875C0 110.07 5.02223 115.093 11.2175 115.093C17.4127 115.093 22.4349 110.07 22.4349 103.875Z" fill="white"/>
<path d="M70.3335 13.6869C70.3335 9.20226 68.8076 5.06706 66.2507 1.76472C67.9456 1.00757 69.821 0.582397 71.7896 0.582397C79.3203 0.582397 85.4765 6.73861 85.4765 14.2693V38.7311C85.4765 46.256 79.3203 52.4181 71.7896 52.4181C69.5531 52.4181 67.4331 51.8706 65.5635 50.9096C68.528 47.4849 70.3335 43.0294 70.3335 38.1487V13.6869Z" fill="white"/>
<path d="M61.061 47.1996C63.2044 44.7826 64.509 41.6083 64.509 38.1488V13.687C64.509 10.4953 63.3966 7.55406 61.5503 5.21854C62.8433 3.75666 64.4449 2.56851 66.2504 1.76477C68.8073 5.06711 70.3332 9.20232 70.3332 13.687V38.1488C70.3332 43.0236 68.5335 47.485 65.5632 50.9096C63.8101 50.0069 62.2783 48.7372 61.061 47.2054V47.1996Z" fill="#EEEEEE"/>
<path d="M58.1025 38.7311C58.1025 41.9228 59.2149 44.8641 61.0612 47.1996C58.551 50.036 54.8875 51.8357 50.8222 51.8357C43.2915 51.8357 37.1353 45.6736 37.1353 38.1487V13.6869C37.1353 6.15621 43.2915 0 50.8222 0C55.1554 0 59.0344 2.04431 61.5504 5.21851C59.4071 7.63557 58.1025 10.8098 58.1025 14.2694V38.7311Z" fill="white"/>
<path d="M64.5092 38.1487C64.5092 41.6141 63.2046 44.7825 61.0612 47.1996C59.2091 44.8641 58.1025 41.9228 58.1025 38.7311V14.2694C58.1025 10.8039 59.4072 7.63556 61.5505 5.21851C63.4026 7.55402 64.5092 10.4953 64.5092 13.6869V38.1487Z" fill="white"/>
<path d="M97.6024 84.6669C88.5981 92.349 75.6625 97.1773 61.3057 97.1773C49.9543 97.1773 38.8766 94.0963 30.1228 88.505C28.2765 87.3227 26.5584 86.053 24.9683 84.7018C19.4412 90.4037 16.1621 97.4511 16.1621 105.087C16.1621 115.663 22.4406 125.116 32.3127 131.418C40.158 136.427 50.263 139.45 61.2999 139.45C86.2276 139.45 106.438 124.062 106.438 105.087C106.438 102.553 106.065 100.084 105.384 97.7073C104.003 92.9082 101.307 88.4876 97.5965 84.6669H97.6024Z" fill="white"/>
<path d="M61.3062 97.1774C75.6629 97.1774 88.5985 92.3491 97.6028 84.6669C96.6709 83.7118 95.675 82.7974 94.6208 81.9179C86.3679 88.7905 74.4981 93.1004 61.3062 93.1004C50.2693 93.1004 40.1584 90.0776 32.319 85.0688C30.7872 84.0903 29.337 83.0303 27.9857 81.9062C26.9199 82.7974 25.9123 83.7292 24.9746 84.7019C26.5588 86.0531 28.2769 87.3286 30.1291 88.5051C38.8829 94.0964 49.9606 97.1774 61.312 97.1774H61.3062Z" fill="#EEEEEE"/>
<path d="M105.389 51.3581C100.951 35.9297 82.9079 24.3744 61.3058 24.3744C36.3781 24.3744 16.168 39.762 16.168 58.7374C16.168 67.6659 20.6468 75.8024 27.9853 81.912C29.3366 83.0361 30.781 84.0903 32.3186 85.0745C40.1638 90.0834 50.2689 93.1062 61.3058 93.1062C74.4977 93.1062 86.3675 88.7962 94.6204 81.9236C101.965 75.814 106.444 67.6776 106.444 58.7432C106.444 56.2096 106.071 53.7402 105.389 51.3639V51.3581Z" fill="white"/>
<path d="M47.4789 67.3165C47.4789 61.1212 42.4567 56.099 36.2614 56.099C30.0662 56.099 25.0439 61.1212 25.0439 67.3165C25.0439 73.5117 30.0662 78.5339 36.2614 78.5339C42.4567 78.5339 47.4789 73.5117 47.4789 67.3165Z" fill="#FFEBB7"/>
<path d="M97.5678 67.3165C97.5678 61.1212 92.5455 56.099 86.3503 56.099C80.155 56.099 75.1328 61.1212 75.1328 67.3165C75.1328 73.5117 80.155 78.5339 86.3503 78.5339C92.5455 78.5339 97.5678 73.5117 97.5678 67.3165Z" fill="#FFEBB7"/>
<path d="M49.2949 65.1008C51.5041 65.1008 53.2949 63.31 53.2949 61.1008C53.2949 58.8917 51.5041 57.1008 49.2949 57.1008C47.0858 57.1008 45.2949 58.8917 45.2949 61.1008C45.2949 63.31 47.0858 65.1008 49.2949 65.1008Z" fill="black"/>
<path d="M73.7568 65.6832C75.966 65.6832 77.7568 63.8924 77.7568 61.6832C77.7568 59.4741 75.966 57.6832 73.7568 57.6832C71.5477 57.6832 69.7568 59.4741 69.7568 61.6832C69.7568 63.8924 71.5477 65.6832 73.7568 65.6832Z" fill="black"/>
</svg>
