<svg width="37" height="37" viewBox="0 0 37 37" fill="none" xmlns="http://www.w3.org/2000/svg">
<path d="M18.5 37C28.7173 37 37 28.7173 37 18.5C37 8.28273 28.7173 0 18.5 0C8.28273 0 0 8.28273 0 18.5C0 28.7173 8.28273 37 18.5 37Z" fill="#FFD84E"/>
<path d="M21.5397 8.91806C21.5397 7.52584 20.4111 6.39722 19.0189 6.39722C17.6267 6.39722 16.498 7.52584 16.498 8.91806V28.7736C16.498 30.1658 17.6267 31.2944 19.0189 31.2944C20.4111 31.2944 21.5397 30.1658 21.5397 28.7736V8.91806Z" fill="white"/>
<path d="M28.9469 21.3666C30.3392 21.3666 31.4678 20.238 31.4678 18.8458C31.4678 17.4536 30.3392 16.325 28.9469 16.325H9.09142C7.6992 16.325 6.57058 17.4536 6.57058 18.8458C6.57058 20.238 7.6992 21.3666 9.09142 21.3666H28.9469Z" fill="white"/>
</svg>
