<svg width="35" height="40" viewBox="0 0 35 40" fill="none" xmlns="http://www.w3.org/2000/svg">
<path d="M7.14693 33.8434C6.12051 34.8526 4.91621 35.2883 3.5014 35.1067C2.4709 34.9742 1.60847 34.5105 0.946757 33.7436C-0.418277 32.1631 -0.286914 29.8274 1.20948 28.4519C2.83072 26.9618 5.44656 26.9127 7.13551 28.6218C7.14041 28.5423 7.14693 28.4838 7.14693 28.4254C7.14693 23.1781 7.15591 17.9308 7.13877 12.6834C7.13633 11.8464 7.59161 11.3079 8.44506 10.9471C8.92401 10.7444 9.43314 10.7312 9.94554 10.7366C10.1952 10.739 10.4457 10.7366 10.7068 10.7366C10.7133 10.6688 10.7215 10.619 10.7215 10.5691C10.7215 8.23806 10.7435 5.90627 10.715 3.57525C10.6929 1.78043 11.9429 0.458661 13.436 0.102501C15.6733 -0.430569 17.8681 1.18267 17.8755 3.38509C17.8828 5.76209 17.8779 8.13909 17.8779 10.5161C17.8779 10.58 17.8779 10.6439 17.8779 10.7234H19.9185C19.9185 10.1864 19.9185 9.65569 19.9185 9.12418C19.9185 7.21479 19.9153 5.3054 19.9193 3.39678C19.9234 1.63625 21.3578 0.162511 23.1993 0.0167736C25.0417 -0.128964 26.7217 1.08369 27.0048 2.8115C27.0962 3.37107 27.0766 3.94934 27.079 4.51904C27.0864 6.63573 27.0839 8.75243 27.0782 10.8691C27.0782 11.0258 27.119 11.0912 27.2855 11.1318C28.675 11.47 29.9291 12.0607 31.0134 12.9687C32.3621 14.0979 33.1609 15.5078 33.4171 17.2005C33.5844 18.3064 33.5827 19.4053 33.1511 20.4628C32.4094 22.2795 31.0722 23.5654 29.2412 24.3993C29.1433 24.4437 29.0454 24.4858 28.9483 24.531C28.9393 24.5349 28.9377 24.5536 28.9189 24.5941C28.9981 24.6191 29.0748 24.6471 29.1531 24.6674C30.3101 24.9643 31.4034 25.3953 32.3678 26.0866C33.7639 27.0865 34.6908 28.3794 34.9225 30.0542C35.1901 31.9885 34.7691 33.7803 33.5917 35.3958C32.531 36.8501 31.0771 37.7939 29.3555 38.3909C28.0059 38.8585 26.605 39.0494 25.1747 39.0502C19.974 39.0525 14.7725 39.0525 9.57185 39.051C8.81386 39.051 8.14399 38.8257 7.60303 38.3004C7.29869 38.0043 7.14449 37.6505 7.14612 37.232C7.1502 36.1214 7.14775 35.0116 7.14775 33.8442L7.14693 33.8434ZM11.9013 14.0223V17.3462C11.9013 18.3656 11.8768 19.3858 11.9078 20.4044C11.938 21.4012 11.9013 32.6097 11.9005 35.5447V35.773C11.9984 35.773 12.071 35.773 12.1444 35.773C15.8903 35.773 19.6354 35.7754 23.3813 35.773C24.3996 35.773 25.4211 35.8214 26.4288 35.6187C27.5857 35.3873 28.6024 34.922 29.3465 34.0117C30.0612 33.1373 30.297 32.1203 30.2889 31.0354C30.2823 30.0862 30.0702 29.193 29.4713 28.4145C28.6595 27.3592 27.5254 26.8293 26.2019 26.6274C25.8217 26.5698 25.4358 26.5433 25.0441 26.502C25.0401 26.4459 25.0327 26.3952 25.0327 26.3445C25.0327 25.3322 25.0352 24.319 25.0286 23.3067C25.0278 23.1469 25.0751 23.0799 25.244 23.0292C26.7143 22.5858 27.7913 21.6981 28.4351 20.3576C28.8161 19.5643 28.8757 18.7194 28.7664 17.8598C28.586 16.4391 27.8803 15.341 26.565 14.6341C25.7148 14.1774 24.779 14.027 23.8162 14.0262C19.9275 14.0231 16.0396 14.0247 12.151 14.0247C12.0775 14.0247 12.0041 14.0247 11.9005 14.0247L11.9013 14.0223Z" fill="white"/>
<path d="M7.14693 33.8434C6.12051 34.8526 4.91621 35.2883 3.5014 35.1067C2.4709 34.9742 1.60847 34.5105 0.946757 33.7436C-0.418277 32.1631 -0.286914 29.8274 1.20948 28.4519C2.83072 26.9618 5.44656 26.9127 7.13551 28.6218C7.14041 28.5423 7.14693 28.4838 7.14693 28.4254C7.14693 23.1781 7.15591 17.9308 7.13877 12.6834C7.13633 11.8464 7.59161 11.3079 8.44506 10.9471C8.92401 10.7444 9.43314 10.7312 9.94554 10.7366C10.1952 10.739 10.4457 10.7366 10.7068 10.7366C10.7133 10.6688 10.7215 10.619 10.7215 10.5691C10.7215 8.23806 10.7435 5.90627 10.715 3.57525C10.6929 1.78043 11.9429 0.458661 13.436 0.102501C15.6733 -0.430569 17.8681 1.18267 17.8755 3.38509C17.8828 5.76209 17.8779 8.13909 17.8779 10.5161C17.8779 10.58 17.8779 10.6439 17.8779 10.7234H19.9185C19.9185 10.1864 19.9185 9.65569 19.9185 9.12418C19.9185 7.21479 19.9153 5.3054 19.9193 3.39678C19.9234 1.63625 21.3578 0.162511 23.1993 0.0167736C25.0417 -0.128964 26.7217 1.08369 27.0048 2.8115C27.0962 3.37107 27.0766 3.94934 27.079 4.51904C27.0864 6.63573 27.0839 8.75243 27.0782 10.8691C27.0782 11.0258 27.119 11.0912 27.2855 11.1318C28.675 11.47 29.9291 12.0607 31.0134 12.9687C32.3621 14.0979 33.1609 15.5078 33.4171 17.2005C33.5844 18.3064 33.5827 19.4053 33.1511 20.4628C32.4094 22.2795 31.0722 23.5654 29.2412 24.3993C29.1433 24.4437 29.0454 24.4858 28.9483 24.531C28.9393 24.5349 28.9377 24.5536 28.9189 24.5941C28.9981 24.6191 29.0748 24.6471 29.1531 24.6674C30.3101 24.9643 31.4034 25.3953 32.3678 26.0866C33.7639 27.0865 34.6908 28.3794 34.9225 30.0542C35.1901 31.9885 34.7691 33.7803 33.5917 35.3958C32.531 36.8501 31.0771 37.7939 29.3555 38.3909C28.0059 38.8585 26.605 39.0494 25.1747 39.0502C19.974 39.0525 14.7725 39.0525 9.57185 39.051C8.81386 39.051 8.14399 38.8257 7.60303 38.3004C7.29869 38.0043 7.14449 37.6505 7.14612 37.232C7.1502 36.1214 7.14775 35.0116 7.14775 33.8442L7.14693 33.8434ZM11.9013 14.0223V17.3462C11.9013 18.3656 11.8768 19.3858 11.9078 20.4044C11.938 21.4012 11.9013 32.6097 11.9005 35.5447V35.773C11.9984 35.773 12.071 35.773 12.1444 35.773C15.8903 35.773 19.6354 35.7754 23.3813 35.773C24.3996 35.773 25.4211 35.8214 26.4288 35.6187C27.5857 35.3873 28.6024 34.922 29.3465 34.0117C30.0612 33.1373 30.297 32.1203 30.2889 31.0354C30.2823 30.0862 30.0702 29.193 29.4713 28.4145C28.6595 27.3592 27.5254 26.8293 26.2019 26.6274C25.8217 26.5698 25.4358 26.5433 25.0441 26.502C25.0401 26.4459 25.0327 26.3952 25.0327 26.3445C25.0327 25.3322 25.0352 24.319 25.0286 23.3067C25.0278 23.1469 25.0751 23.0799 25.244 23.0292C26.7143 22.5858 27.7913 21.6981 28.4351 20.3576C28.8161 19.5643 28.8757 18.7194 28.7664 17.8598C28.586 16.4391 27.8803 15.341 26.565 14.6341C25.7148 14.1774 24.779 14.027 23.8162 14.0262C19.9275 14.0231 16.0396 14.0247 12.151 14.0247C12.0775 14.0247 12.0041 14.0247 11.9005 14.0247L11.9013 14.0223Z" fill="url(#paint0_linear_336_1011)"/>
<defs>
<linearGradient id="paint0_linear_336_1011" x1="0" y1="0" x2="33.294" y2="40.456" gradientUnits="userSpaceOnUse">
<stop stop-color="#DECDFF"/>
<stop offset="1" stop-color="#BCECFF"/>
</linearGradient>
</defs>
</svg>
